<?xml version="1.0" encoding="utf-8"?>
<!-- Generator: Adobe Illustrator 21.0.2, SVG Export Plug-In . SVG Version: 6.00 Build 0)  -->
<svg version="1.1" xmlns="http://www.w3.org/2000/svg" xmlns:xlink="http://www.w3.org/1999/xlink" x="0px" y="0px"
	 viewBox="0 0 2000 2000" style="enable-background:new 0 0 2000 2000;" xml:space="preserve">
<style type="text/css">
	.st0{display:none;}
	.st1{fill:#FFFFFF;}
</style>
<g id="Layer_2">
	<rect width="2000" height="2000"/>
</g>
<g id="Layer_3" class="st0">
</g>
<g id="Layer_1">
	<g>
		<path class="st1" d="M870.3,962c-27.5,0-55,0-82.4,0c-7.8,0-13.9-8.7-13.9-17.3c0-134.2,0-268.4,0-402.6c0-6.1-0.9-8.7-2.6-8.7
			c-0.9,0-2.6,2.6-4.3,5.2c-24.3,55.1-48.7,110.3-73,165.4c-5.2,9.5-16.4,14.7-27.7,14.7c-25.8,0-51.6,0-77.4,0
			c-11.3,0-22.5-5.2-27.7-14.7c-24.6-55.1-49.3-110.2-73.9-165.4c-1.7-2.6-3.5-5.2-4.3-5.2c-1.7,0-2.6,2.6-2.6,8.7
			c0,134.2,0,268.4,0,402.6c0,8.7-6.1,17.3-13.8,17.3c-27.5,0-55,0-82.4,0c-7.8,0-14.7-4.3-14.7-13c0-198.6,0-397.1,0-595.7
			c0-19.1,15.6-34.6,34.6-34.6c22,0,44,0,66,0c13.8,0,26,8.7,32,20.8c40.2,88.3,80.4,176.6,120.7,264.9c4.3,7.8,4.6,7.8,9,0
			c40.2-88.3,80.4-176.6,120.7-264.9c6.1-12.1,18.2-20.8,32-20.8c22,0,44,0,66,0c19,0,34.6,15.6,34.6,34.6c0,198.6,0,397.1,0,595.7
			C885,957.7,878.1,962,870.3,962z"/>
		<path class="st1" d="M1401.2,971.6c-143.3,0-247.5-79.9-247.5-271V583.5c0-191.1,104.2-271,247.5-271
			c143.3,0,247.5,79.9,247.5,271v117.2C1648.7,891.7,1544.4,971.6,1401.2,971.6z M1527.1,583.5c0-114.6-40.8-165.9-125.9-165.9
			c-85.1,0-125.9,51.2-125.9,165.9v117.2c0,114.6,40.8,165.9,125.9,165.9c85.1,0,125.9-51.2,125.9-165.9V583.5z"/>
		<path class="st1" d="M1648.7,1687.5h-102.5c-9.5,0-15.6-7-22.5-17.4L1396,1465.2l-119.8,204.9c-6.1,11.3-13,17.4-22.6,17.4h-94.7
			c-9.5,0-13.9-5.2-13.9-11.3c0-1.7,0.9-4.3,1.8-6.1l185-308.3l-190.2-303.1c-0.9-1.7-1.7-3.5-1.7-5.2c0-6.1,6.1-11.3,13.9-11.3
			h102.5c9.6,0,17.4,8.7,22.6,16.5l126.8,202.3l117.2-202.3c4.3-7.8,13-16.5,22.6-16.5h94.7c7.8,0,13.9,5.2,13.9,11.3
			c0,1.7-0.9,3.5-1.7,5.2l-182.4,305.7l191,305.7c1.7,2.6,1.7,4.3,1.7,6.9C1662.6,1682.3,1658.2,1687.5,1648.7,1687.5z"/>
		<path class="st1" d="M1063.6,1687.5h-86c-9.6,0-17.4-7.8-17.4-17.4v-611.4c0-9.6,7.8-16.5,17.4-16.5h86c9.5,0,17.4,7,17.4,16.5
			v611.4C1080.9,1679.7,1073.1,1687.5,1063.6,1687.5z"/>
		<path class="st1" d="M1063.6,964.7h-86c-9.6,0-17.4-7.8-17.4-17.4V336c0-9.6,7.8-16.5,17.4-16.5h86c9.5,0,17.4,6.9,17.4,16.5
			v611.4C1080.9,956.9,1073.1,964.7,1063.6,964.7z"/>
		<path class="st1" d="M852.7,1687.5h-74.4c-9.5,0-18.3-7.8-18.3-17.3v-393.7c0-98.7-46.6-138.5-129.8-138.5
			c-43.3,0-111,3.5-139.6,6.9v525.3c0,9.5-6.9,17.3-16.4,17.3h-72.3c-9.5,0-16.5-7.8-16.5-17.3v-577.2c0-32,9.5-39.8,36.4-44.1
			c46.7-6.9,146.1-14.7,196.4-14.7c161,0,251,58,251,242.4v393.7C869.1,1679.7,862.2,1687.5,852.7,1687.5z"/>
	</g>
</g>
</svg>
